# File created by Blade
# Date/Time:  Thu Sep 25 17:14:50 2014
# Frame Rate: 120.000 fps
#------------------------------------------------------
:FULLY-SPECIFIED
:DEGREES
789
root -36.705561 31.335039 11.779344 193.557122 76.026008 182.040750
Spine -7.181566 -1.214344 0.116044
Head -6.136306 -16.761587 16.123814
LeftShoulder -12.412032 21.360794 22.432939
LeftArm 23.875371 -19.701914 -30.726888
LeftForeArm 1.003335 -0.000000 15.203976
LeftHand -29.475238 -0.000000 6.424401
LeftHandThumb1 -26.253704 0.000000 33.147579
RightShoulder -23.464506 9.459073 -31.424956
RightArm -17.852242 10.906985 37.002349
RightForeArm -20.197168 -0.000000 25.319276
RightHand -13.754039 -0.000000 -8.532195
RightHandThumb1 -24.326973 -0.000000 -32.862282
LeftUpLeg 3.280082 3.909292 -5.788308
LeftLeg -3.858703 -0.000000 0.000000
LeftFoot -23.769948 18.979052 -25.529231
LeftToeBase 2.867834 -0.000000 -0.000000
RightUpLeg -40.491740 -13.979884 13.653678
RightLeg 9.198161 -0.000000 -0.000000
RightFoot 15.952408 1.430917 0.306943
RightToeBase -9.851346 -0.000000 0.000000
790
root -36.615626 31.315940 11.767807 193.619599 75.916727 181.991000
Spine -7.240203 -1.291202 0.204420
Head -6.331047 -16.966683 16.076606
LeftShoulder -12.263354 21.358097 22.057136
LeftArm 24.626132 -18.471530 -31.425964
LeftForeArm -0.002002 -0.000000 15.293168
LeftHand -29.221167 -0.000000 6.669044
LeftHandThumb1 -26.253704 0.000000 33.147579
RightShoulder -23.456746 9.348789 -31.078233
RightArm -18.037022 10.714795 38.092896
RightForeArm -19.138914 -0.000000 25.623575
RightHand -13.244560 -0.000000 -8.356256
RightHandThumb1 -24.326973 -0.000000 -32.862282
LeftUpLeg 3.313642 3.909046 -5.758618
LeftLeg -3.811920 -0.000000 0.000000
LeftFoot -23.882903 18.860599 -25.532409
LeftToeBase 2.826788 -0.000000 -0.000000
RightUpLeg -40.630038 -14.293609 14.117215
RightLeg 8.684139 -0.000000 -0.000000
RightFoot 15.453992 1.228549 0.719307
RightToeBase -9.821437 -0.000000 0.000000
791
root -36.521638 31.295180 11.757468 193.576602 75.745175 181.794293
Spine -7.363899 -1.402657 0.241746
Head -6.512682 -17.194749 16.041525
LeftShoulder -12.057997 21.352384 21.718157
LeftArm 25.358287 -17.180732 -32.117638
LeftForeArm -1.484545 -0.000000 15.406036
LeftHand -29.122901 -0.000000 6.859992
LeftHandThumb1 -26.253704 0.000000 33.147579
RightShoulder -23.427558 9.128876 -30.664093
RightArm -18.193600 10.554509 39.254356
RightForeArm -18.193262 -0.000000 25.928224
RightHand -13.133243 0.000000 -8.406414
RightHandThumb1 -24.326973 -0.000000 -32.862282
LeftUpLeg 3.313412 3.822138 -5.738533
LeftLeg -3.748770 -0.000000 0.000000
LeftFoot -24.000360 18.680636 -25.551693
LeftToeBase 2.758575 -0.000000 -0.000000
RightUpLeg -40.809939 -14.676391 14.585871
RightLeg 8.122623 -0.000000 -0.000000
RightFoot 15.058715 1.018525 1.090076
RightToeBase -9.978700 -0.000000 0.000000
792
root -36.420056 31.270421 11.743256 193.484504 75.631125 181.602962
Spine -7.405147 -1.472481 0.249497
Head -6.765022 -17.388566 16.098300
LeftShoulder -11.826096 21.331631 21.440719
LeftArm 26.047075 -15.995777 -32.979996
LeftForeArm -2.998969 -0.000000 15.693326
LeftHand -29.173252 0.000000 7.373475
LeftHandThumb1 -26.253704 0.000000 33.147579
RightShoulder -23.426817 8.853696 -30.187953
RightArm -18.272558 10.521559 40.422131
RightForeArm -17.626962 -0.000000 26.160586
RightHand -12.562667 -0.000000 -7.930999
RightHandThumb1 -24.326973 -0.000000 -32.862282
LeftUpLeg 3.378570 3.881582 -5.727391
LeftLeg -3.680553 -0.000000 0.000000
LeftFoot -24.116680 18.513478 -25.525728
LeftToeBase 2.772784 -0.000000 -0.000000
RightUpLeg -40.958904 -15.065910 15.073939
RightLeg 7.615107 -0.000000 -0.000000
RightFoot 14.733618 0.831684 1.460964
RightToeBase -10.373223 -0.000000 0.000000
793
root -36.314793 31.243538 11.726935 193.271881 75.490653 181.277990
Spine -7.446732 -1.551929 0.226623
Head -7.057978 -17.601196 16.156452
LeftShoulder -11.553715 21.337766 21.170407
LeftArm 26.784279 -15.005384 -34.013224
LeftForeArm -4.293941 -0.000000 15.974022
LeftHand -29.123121 0.000000 7.503378
LeftHandThumb1 -26.253704 0.000000 33.147579
RightShoulder -23.474340 8.626968 -29.693604
RightArm -18.280372 10.302865 41.656352
RightForeArm -17.257980 -0.000000 26.364545
RightHand -12.020370 -0.000000 -7.280194
RightHandThumb1 -24.326973 -0.000000 -32.862282
LeftUpLeg 3.461931 3.798263 -5.753181
LeftLeg -3.647477 -0.000000 0.000000
LeftFoot -24.261214 18.429341 -25.527890
LeftToeBase 2.789861 -0.000000 -0.000000
RightUpLeg -41.112205 -15.416888 15.481961
RightLeg 7.137930 -0.000000 -0.000000
RightFoot 14.364542 0.604943 1.782560
RightToeBase -10.698412 -0.000000 0.000000
794
root -36.207978 31.214377 11.709050 193.116857 75.379934 181.001127
Spine -7.489758 -1.622709 0.211612
Head -7.357249 -17.747592 16.264968
LeftShoulder -11.328732 21.476785 20.887026
LeftArm 27.673482 -14.183577 -35.190930
LeftForeArm -5.735080 0.000000 16.269952
LeftHand -28.839776 -0.000000 7.226841
LeftHandThumb1 -26.253704 0.000000 33.147579
RightShoulder -23.523119 8.474904 -29.188290
RightArm -18.238057 10.097425 42.859902
RightForeArm -16.786401 -0.000000 26.529093
RightHand -11.299597 -0.000000 -6.353179
RightHandThumb1 -24.326973 -0.000000 -32.862282
LeftUpLeg 3.507887 3.836639 -5.777027
LeftLeg -3.552131 -0.000000 0.000000
LeftFoot -24.399119 18.198647 -25.532336
LeftToeBase 2.567668 -0.000000 -0.000000
RightUpLeg -41.299805 -15.760467 15.915794
RightLeg 6.673014 -0.000000 -0.000000
RightFoot 14.179130 0.370979 2.002403
RightToeBase -11.193078 -0.000000 0.000000
